# xmcd
#
# Track frame offsets:
#	150
#	14075
#	28821
#	42389
#	57073
#	79858
#	92086
#	108752
#	121241
#	136663
#	152103
#	168127
#
# Disc length: 2498
#
# Revision: 1
# Processed by: cddbd v1.5.1PL0 Copyright (c) Steve Scherf et al.
# Submitted via: ExactAudioCopy v0.90b2
# Normalized: r0:DSETVAR1,TDELIM( - )
#
DISCID=8f09c00c
DTITLE=Various Artist - Deutsche Schlager
DYEAR=2001
DGENRE=Alternative
TTITLE0=Dschingis Khan - Dschingis Khan
TTITLE1=Tony Marschall - Schoene Maid
TTITLE2=Marianne Rosenberg - Er gehoert zu mir
TTITLE3=Roland Kaiser - Amore Mio
TTITLE4=Ricky Shayne - Mamy Blue
TTITLE5=Michael Holm - Barfuss im regen
TTITLE6=Hoffmann and Hoffmann - Himbeerei zum Fruehstueck
TTITLE7=Chris Roberts - Doy ou speak English ?
TTITLE8=Gebr. Blattschuss - Kreuzberger naechte
TTITLE9=Nina and Mike - Paloma Blanca
TTITLE10=Katja Ebstein - Wunder gibt es immer wieder
TTITLE11=Peter Alexander - Die kleine Kneipe
EXTD=
EXTT0=
EXTT1=
EXTT2=
EXTT3=
EXTT4=
EXTT5=
EXTT6=
EXTT7=
EXTT8=
EXTT9=
EXTT10=
EXTT11=
PLAYORDER=
